<svg width="32" height="32" viewBox="0 0 32 32" fill="none" xmlns="http://www.w3.org/2000/svg">
<g clip-path="url(#clip0_2046_171)">
<path d="M21.3911 3.19562C20.9467 3.75562 20.4223 4.21784 19.6578 4.74229L19.16 5.08006L19.2045 4.29784C19.24 3.67562 19.2134 3.4534 19.0889 3.18673C18.9911 2.98229 18.8756 2.86673 18.7956 2.88451C18.7156 2.90229 18.4578 3.19562 18.2267 3.54229C17.9156 4.00451 17.6223 4.29784 17.1334 4.64451C16.36 5.18673 15.9778 5.71117 15.5778 6.75117C15.1778 7.77339 15.2578 7.70228 14.4134 7.7645C13.5245 7.83562 13.2578 7.89784 12.7334 8.1645C12.1645 8.44895 11.7378 8.92895 11.24 9.8445C10.8223 10.6178 10.7689 10.6712 10.1556 10.9556C9.95116 11.0534 9.85338 11.7289 9.96893 12.2445C10.1734 13.1512 10.8312 13.7467 11.9956 14.0845L12.6356 14.2801L12.3156 14.6267C12.1467 14.8223 11.88 15.2401 11.7289 15.5689C11.4889 16.0756 11.4445 16.2801 11.4 17.1689L11.3556 18.1823L10.9556 18.5023C10.12 19.1689 9.40005 19.9689 9.28449 20.3423C9.06227 21.0889 9.21338 21.56 9.70227 21.6667C9.96005 21.72 9.96005 21.7289 9.8356 22.0223C9.60449 22.5823 9.94227 23.2223 10.4845 23.2223C10.9556 23.2223 11.7556 22.6 12.2534 21.8534L12.4134 21.6045L12.52 21.9778C12.6178 22.3067 12.6089 22.3867 12.4134 22.8134C11.9334 23.8623 11.9423 24.6978 12.4312 26.2445C12.6 26.76 12.7334 27.2045 12.7334 27.2311C12.7334 27.2667 12.4845 27.3023 12.1823 27.3289C10.9023 27.4089 9.9156 28.4045 10.3334 29.1867C10.4223 29.3467 10.5734 29.3556 15 29.3556C17.5067 29.3556 19.6223 29.3289 19.7023 29.3023C19.7823 29.2756 19.8445 29.1511 19.8445 29.0356C19.8445 28.84 19.88 28.8223 20.3156 28.8223C21.4178 28.8223 22.8667 27.6045 22.8667 26.68C22.8667 26.3778 22.5289 26.0756 22.1289 26.0045L21.8178 25.96V24.7867C21.8267 22.9467 21.5423 22.2445 20.0223 20.2889C18.9289 18.8756 18.6978 18.5289 18.2445 17.64C17.5511 16.2623 17.32 14.7245 17.5689 13.1156C17.6489 12.6089 17.7111 11.8712 17.7111 11.4712C17.7023 10.8134 17.6489 10.5289 17.4 9.95117C17.3467 9.82672 17.48 9.72895 18.2089 9.39117C20.2178 8.46673 20.5467 8.28006 20.9556 7.87117C21.7378 7.07117 22.2445 6.00451 22.4223 4.76006C22.7067 2.77784 22.2711 2.12007 21.3911 3.19562Z" fill="#4A1C51"/>
</g>
<defs>
<clipPath id="clip0_2046_171">
<rect width="28" height="28" fill="white" transform="translate(2.00003 2)"/>
</clipPath>
</defs>
</svg>
